<svg width="33" height="32" viewBox="0 0 33 32" fill="none" xmlns="http://www.w3.org/2000/svg">
<path d="M16.6957 0C7.87231 0 0.695679 7.17663 0.695679 16C0.695679 24.8234 7.87231 32 16.6957 32C25.5163 32 32.6957 24.8234 32.6957 16C32.6957 7.17663 25.5163 0 16.6957 0ZM22.712 19.1549L17.1468 24.7201C17.0843 24.7853 17.0055 24.8342 16.9212 24.8696C16.837 24.9049 16.7446 24.9239 16.6549 24.9239C16.5652 24.9239 16.4729 24.9049 16.3886 24.8696C16.3044 24.8342 16.2283 24.7853 16.1631 24.7201L10.5979 19.1549C10.3261 18.8832 10.3261 18.4429 10.5979 18.1712C10.8696 17.8995 11.3098 17.8995 11.5815 18.1712L15.9593 22.5489V7.53261C15.9593 7.14946 16.2718 6.83696 16.6549 6.83696C17.0381 6.83696 17.3506 7.14946 17.3506 7.53261V22.5489L21.7283 18.1712C22 17.8995 22.4402 17.8995 22.712 18.1712C22.9837 18.4429 22.9837 18.8832 22.712 19.1549Z" fill="white"/>
</svg>
