<svg width="45" height="36" viewBox="0 0 45 36" fill="none" xmlns="http://www.w3.org/2000/svg">
<g clip-path="url(#clip0_1_297)">
<path d="M2.21634 0C1.08035 0 0.153839 0.932993 0.153839 2.07692C0.153839 2.97746 0.731232 3.74008 1.52884 4.02674V23.6683C0.731232 23.9522 0.153839 24.7148 0.153839 25.6154V29.7692C0.153839 30.9132 1.08035 31.8462 2.21634 31.8462H5.70755C6.04324 34.1908 8.04666 36 10.4663 36C12.886 36 14.8894 34.1908 15.2251 31.8462H30.4576C30.7932 34.1908 32.7967 36 35.2163 36C37.636 36 39.6394 34.1908 39.9751 31.8462H42.0913C43.2273 31.8462 44.1538 30.9132 44.1538 29.7692V25.6154C44.1538 24.704 43.5657 23.9387 42.7547 23.6575C42.7627 23.6196 42.7788 23.5817 42.7788 23.5385V20.8909C42.7788 20.2257 42.5909 19.5766 42.231 19.0168L37.2923 11.2825C36.6585 10.2873 35.5789 9.69231 34.4026 9.69231H33.1538V8.30769C33.1538 7.92638 32.845 7.61538 32.4663 7.61538C32.0877 7.61538 31.7788 7.92638 31.7788 8.30769V9.69231H29.0288V4.02674C29.8264 3.74008 30.4038 2.97746 30.4038 2.07692C30.4038 0.932993 29.4773 0 28.3413 0H2.21634ZM2.21634 1.38462H28.3413C28.72 1.38462 29.0288 1.69561 29.0288 2.07692C29.0288 2.45823 28.72 2.76923 28.3413 2.76923H2.21634C1.83768 2.76923 1.52884 2.45823 1.52884 2.07692C1.52884 1.69561 1.83768 1.38462 2.21634 1.38462ZM2.90384 4.15385H27.6538V23.5385H2.90384V4.15385ZM15.2788 5.53846C10.7295 5.53846 7.02884 9.26502 7.02884 13.8462C7.02884 18.4273 10.7295 22.1538 15.2788 22.1538C19.8282 22.1538 23.5288 18.4273 23.5288 13.8462C23.5288 9.26502 19.8282 5.53846 15.2788 5.53846ZM15.2788 6.92308C19.0708 6.92308 22.1538 10.0276 22.1538 13.8462C22.1538 17.6647 19.0708 20.7692 15.2788 20.7692C11.4868 20.7692 8.40384 17.6647 8.40384 13.8462C8.40384 10.0276 11.4868 6.92308 15.2788 6.92308ZM29.0288 11.0769H34.4026C35.1062 11.0769 35.7561 11.4339 36.1375 12.0288L41.0762 19.7659C41.291 20.104 41.4038 20.4934 41.4038 20.8909V23.5385H29.0288V11.0769ZM18.7163 11.1148C18.5418 11.1148 18.3645 11.1824 18.2303 11.3176L13.9038 15.6743L12.3274 14.0868C12.0589 13.8164 11.6238 13.8164 11.3553 14.0868C11.0867 14.3573 11.0867 14.7954 11.3553 15.0658L13.4178 17.1427C13.552 17.2779 13.7266 17.3456 13.9038 17.3456C14.0811 17.3456 14.2556 17.2779 14.3899 17.1427L19.2024 12.2966C19.471 12.0261 19.471 11.588 19.2024 11.3176C19.0681 11.1824 18.8909 11.1148 18.7163 11.1148ZM31.7788 12.4615C31.0215 12.4615 30.4038 13.0835 30.4038 13.8462V18C30.4038 18.7626 31.0215 19.3846 31.7788 19.3846H36.7256C37.2251 19.3846 37.687 19.1115 37.9287 18.6707C38.1704 18.2326 38.157 17.6944 37.8911 17.2671L35.313 13.1106C35.0606 12.7049 34.6228 12.4615 34.1475 12.4615H31.7788ZM31.7788 13.8462H34.1475L36.731 18H31.7788V13.8462ZM31.0913 20.7692C30.7127 20.7692 30.4038 21.0802 30.4038 21.4615C30.4038 21.8428 30.7127 22.1538 31.0913 22.1538H32.4663C32.845 22.1538 33.1538 21.8428 33.1538 21.4615C33.1538 21.0802 32.845 20.7692 32.4663 20.7692H31.0913ZM2.21634 24.9231H42.0913C42.47 24.9231 42.7788 25.2341 42.7788 25.6154V29.7692C42.7788 30.1505 42.47 30.4615 42.0913 30.4615H39.9751C39.6394 28.1169 37.636 26.3077 35.2163 26.3077C32.7967 26.3077 30.7932 28.1169 30.4576 30.4615H15.2251C14.8894 28.1169 12.886 26.3077 10.4663 26.3077C8.04666 26.3077 6.04324 28.1169 5.70755 30.4615H2.21634C1.83768 30.4615 1.52884 30.1505 1.52884 29.7692V29.0769C1.9075 29.0769 2.21634 28.7659 2.21634 28.3846V27C2.21634 26.6187 1.9075 26.3077 1.52884 26.3077V25.6154C1.52884 25.2341 1.83768 24.9231 2.21634 24.9231ZM4.96634 26.3077C4.58768 26.3077 4.27884 26.6187 4.27884 27V28.3846C4.27884 28.7659 4.58768 29.0769 4.96634 29.0769C5.345 29.0769 5.65384 28.7659 5.65384 28.3846V27C5.65384 26.6187 5.345 26.3077 4.96634 26.3077ZM15.9663 26.3077C15.5877 26.3077 15.2788 26.6187 15.2788 27V28.3846C15.2788 28.7659 15.5877 29.0769 15.9663 29.0769C16.345 29.0769 16.6538 28.7659 16.6538 28.3846V27C16.6538 26.6187 16.345 26.3077 15.9663 26.3077ZM19.4038 26.3077C19.0252 26.3077 18.7163 26.6187 18.7163 27V28.3846C18.7163 28.7659 19.0252 29.0769 19.4038 29.0769C19.7825 29.0769 20.0913 28.7659 20.0913 28.3846V27C20.0913 26.6187 19.7825 26.3077 19.4038 26.3077ZM22.8413 26.3077C22.4627 26.3077 22.1538 26.6187 22.1538 27V28.3846C22.1538 28.7659 22.4627 29.0769 22.8413 29.0769C23.22 29.0769 23.5288 28.7659 23.5288 28.3846V27C23.5288 26.6187 23.22 26.3077 22.8413 26.3077ZM26.2788 26.3077C25.9002 26.3077 25.5913 26.6187 25.5913 27V28.3846C25.5913 28.7659 25.9002 29.0769 26.2788 29.0769C26.6575 29.0769 26.9663 28.7659 26.9663 28.3846V27C26.9663 26.6187 26.6575 26.3077 26.2788 26.3077ZM29.7163 26.3077C29.3377 26.3077 29.0288 26.6187 29.0288 27V28.3846C29.0288 28.7659 29.3377 29.0769 29.7163 29.0769C30.095 29.0769 30.4038 28.7659 30.4038 28.3846V27C30.4038 26.6187 30.095 26.3077 29.7163 26.3077ZM40.7163 26.3077C40.3377 26.3077 40.0288 26.6187 40.0288 27V28.3846C40.0288 28.7659 40.3377 29.0769 40.7163 29.0769C41.095 29.0769 41.4038 28.7659 41.4038 28.3846V27C41.4038 26.6187 41.095 26.3077 40.7163 26.3077ZM10.4663 27.6923C12.3623 27.6923 13.9038 29.2446 13.9038 31.1538C13.9038 33.0631 12.3623 34.6154 10.4663 34.6154C8.57034 34.6154 7.02884 33.0631 7.02884 31.1538C7.02884 29.2446 8.57034 27.6923 10.4663 27.6923ZM35.2163 27.6923C37.1123 27.6923 38.6538 29.2446 38.6538 31.1538C38.6538 33.0631 37.1123 34.6154 35.2163 34.6154C33.3203 34.6154 31.7788 33.0631 31.7788 31.1538C31.7788 29.2446 33.3203 27.6923 35.2163 27.6923ZM10.4663 29.7692C9.70633 29.7692 9.09134 30.3885 9.09134 31.1538C9.09134 31.9192 9.70633 32.5385 10.4663 32.5385C11.2263 32.5385 11.8413 31.9192 11.8413 31.1538C11.8413 30.3885 11.2263 29.7692 10.4663 29.7692ZM35.2163 29.7692C34.4563 29.7692 33.8413 30.3885 33.8413 31.1538C33.8413 31.9192 34.4563 32.5385 35.2163 32.5385C35.9763 32.5385 36.5913 31.9192 36.5913 31.1538C36.5913 30.3885 35.9763 29.7692 35.2163 29.7692Z" fill="white"/>
</g>
<defs>
<clipPath id="clip0_1_297">
<rect width="45" height="36" fill="white"/>
</clipPath>
</defs>
</svg>
