<svg width="40" height="38" viewBox="0 0 40 38" fill="none" xmlns="http://www.w3.org/2000/svg">
<g clip-path="url(#clip0_1_312)">
<path fill-rule="evenodd" clip-rule="evenodd" d="M3.10811 2.4551L4.01902 5.04169L5.00002 7.91269L7.20024 8.98264L8.53873 10.3199V12.2494L6.20024 13.4782L4.01902 17.1861L7.20024 15.3447L9.69504 14.6078L12.3907 15.3328L14.6708 16.1518H16.8844L13.7004 13.477L12.3907 12.2494V9.82061L13.7004 8.98264L15.4678 7.22638L16.8844 5.04169L17.5541 3.06889L18.7531 1.84131L3.10811 2.4551Z" fill="#BAF1FF"/>
<path d="M2.15022 0C1.30286 0 0.612915 0.688675 0.612915 1.53448C0.612915 2.38029 1.30286 3.06896 2.15022 3.06896H2.67267L4.18115 6.45561C4.74872 7.73107 5.68253 8.78486 6.88225 9.503L7.99199 10.1683V11.9282L6.88225 12.5935C5.68315 13.3117 4.74872 14.3655 4.18115 15.6409L2.67267 19.0276H2.15022C1.30163 19.0276 0.612915 19.715 0.612915 20.5621C0.612915 21.4091 1.30163 22.0965 2.15022 22.0965H8.42196C8.43426 22.1518 8.45289 22.2067 8.46519 22.262C8.98788 24.22 10.0894 25.6569 11.2516 25.9699C13.1701 32.0096 18.0398 38 23.8263 38C29.6127 38 34.4824 32.0096 36.401 25.9699C37.5632 25.6569 38.6645 24.22 39.1933 22.262C39.8697 19.7454 39.2976 17.5669 37.871 17.1802C37.6386 17.117 37.3063 17.095 36.9066 17.2246C36.8746 15.7772 36.6689 14.5435 36.2808 13.4915C36.1277 13.0771 36.1735 12.9316 36.1692 12.9316C36.345 12.7941 37.2456 12.9149 38.104 13.2697C38.3149 13.3568 38.5575 13.3198 38.7333 13.1738C38.9092 13.0271 38.9891 12.7948 38.9399 12.572C37.3842 5.46792 32.1052 1.22759 24.8171 1.22759H23.8275C22.7919 1.22759 21.5201 1.3946 20.2724 1.71071C20.2792 1.65178 20.2904 1.59463 20.2904 1.53448C20.2904 0.688675 19.6005 0 18.7531 0H2.15022ZM2.15022 1.22759H18.7531C18.9229 1.22759 19.0606 1.36507 19.0606 1.53448C19.0606 1.70389 18.9229 1.84138 18.7531 1.84138H17.8308H3.07261H2.15022C1.9805 1.84138 1.84276 1.70389 1.84276 1.53448C1.84276 1.36507 1.9805 1.22759 2.15022 1.22759ZM23.8275 2.45517H24.8171C31.2154 2.45517 35.7738 5.83622 37.4735 11.7783C36.7319 11.6046 35.8391 11.5461 35.3188 12.0445C34.8859 12.4588 34.8222 13.0884 35.1279 13.9158C35.6075 15.2152 35.7742 16.8592 35.6395 18.9437C35.6174 19.2819 35.8741 19.5743 36.2136 19.5958C36.2271 19.5964 36.2415 19.597 36.2544 19.597C36.576 19.597 36.846 19.3481 36.8669 19.0228C36.8768 18.8706 36.8806 18.7247 36.8874 18.5768C36.9224 18.5627 36.9593 18.5569 36.9919 18.5361C37.1517 18.4317 37.3793 18.3217 37.5515 18.3646C38.092 18.5126 38.5355 19.9728 38.0067 21.9431C37.7546 22.8822 37.3732 23.5945 36.9858 24.0794C36.5984 24.5643 36.2045 24.8095 35.9277 24.8095C35.6572 24.8095 35.418 24.988 35.338 25.2458C33.6347 30.9786 29.133 36.7724 23.8263 36.7724C18.5195 36.7724 14.0178 30.9786 12.3145 25.2458C12.2345 24.988 11.9953 24.8095 11.7248 24.8095C11.1898 24.8095 10.2054 23.8704 9.69504 22.0965H18.7531C19.6017 22.0965 20.2904 21.4091 20.2904 20.5621C20.2904 19.715 19.6017 19.0276 18.7531 19.0276H18.2307L16.7222 15.6397C16.1546 14.3643 15.2208 13.3105 14.0211 12.5923L12.9114 11.9282V10.1683L14.0211 9.503C15.2202 8.78486 16.1546 7.73107 16.7222 6.45561L17.8332 3.96208C19.3422 3.08865 21.8019 2.45517 23.8275 2.45517ZM4.01901 3.06896H16.8856L15.5981 5.9581C15.1338 7.00155 14.3702 7.86362 13.3894 8.45164L12.2796 9.11578C11.9107 9.33552 11.6815 9.7393 11.6815 10.1683V11.9282C11.6815 12.3566 11.9101 12.7598 12.2784 12.9808L13.3882 13.6461C14.1021 14.0739 14.6975 14.6503 15.1501 15.3328L13.7377 14.7682C11.3561 13.9003 9.38719 13.902 7.14887 14.7754L5.75329 15.3316C6.20587 14.6491 6.80126 14.0727 7.51518 13.6449L8.62493 12.9808C8.99327 12.7598 9.22184 12.3566 9.22184 11.9282V10.1671C9.22184 9.7381 8.99327 9.33493 8.62493 9.11458L7.51518 8.45044C6.53377 7.86243 5.77019 7.00035 5.30531 5.95691L4.01901 3.06896ZM23.7062 3.68515C23.3673 3.71216 23.1146 4.00692 23.1417 4.3445L23.2378 5.53133C23.263 5.85295 23.5318 6.09717 23.8491 6.09717C23.8657 6.09717 23.8817 6.096 23.8983 6.09477C24.2371 6.06776 24.4899 5.77181 24.4628 5.43422L24.3679 4.2474C24.3409 3.9092 24.0351 3.65262 23.7062 3.68515ZM27.1579 3.84939C26.8197 3.79476 26.5058 4.02259 26.4517 4.35649L26.2595 5.52893C26.2042 5.86345 26.4312 6.1792 26.7664 6.23383C26.8002 6.23936 26.834 6.24222 26.8672 6.24222C27.163 6.24222 27.4234 6.02749 27.4726 5.72673L27.6647 4.55429C27.7194 4.21978 27.493 3.9034 27.1579 3.84939ZM30.2157 4.91871C29.9762 4.91675 29.7474 5.05697 29.6464 5.29037L29.1804 6.3693C29.0457 6.67988 29.1893 7.04109 29.5011 7.1749C29.5804 7.20927 29.6631 7.22645 29.7449 7.22645C29.9829 7.22645 30.2091 7.08742 30.3094 6.85602L30.7754 5.77708C30.91 5.46589 30.7665 5.1047 30.4547 4.97028C30.3769 4.93622 30.2955 4.91939 30.2157 4.91871ZM32.9216 6.84762C32.7654 6.86727 32.6175 6.94608 32.5132 7.08019L31.8046 7.99249C31.5968 8.26011 31.6446 8.64516 31.9127 8.85324C32.0246 8.9404 32.1583 8.98271 32.2899 8.98271C32.4731 8.98271 32.6551 8.90005 32.7763 8.74415L33.4837 7.83305C33.6915 7.56544 33.6437 7.18038 33.3756 6.9723C33.2418 6.86826 33.0778 6.82798 32.9216 6.84762ZM18.1935 9.6025C17.7406 9.64422 17.3121 9.88494 17.0477 10.2858L15.5692 12.5264C15.3823 12.8094 15.4611 13.1898 15.7446 13.3764C15.8485 13.4451 15.9658 13.4771 16.0821 13.4771C16.2819 13.4771 16.478 13.3806 16.5961 13.2013L18.0746 10.962C18.1594 10.8337 18.3277 10.7877 18.4661 10.8553L19.9085 11.5566C22.5318 12.832 25.3041 13.4783 28.1499 13.4783C28.4894 13.4783 28.7649 13.2033 28.7649 12.8645C28.7649 12.5257 28.4894 12.2495 28.1499 12.2495C25.4929 12.2495 22.9013 11.6457 20.4478 10.4525L19.0054 9.75115C18.7457 9.62479 18.4652 9.57747 18.1935 9.6025ZM30.6132 12.2495C30.2738 12.2495 29.9983 12.5245 29.9983 12.8633C29.9983 13.2021 30.2738 13.4771 30.6132 13.4771H32.4616C32.801 13.4771 33.0765 13.2021 33.0765 12.8633C33.0765 12.5245 32.801 12.2495 32.4616 12.2495H30.6132ZM10.4 15.3448C11.3191 15.3447 12.2555 15.5346 13.2981 15.9143L15.9704 16.9824C15.9716 16.983 15.9727 16.9818 15.974 16.9824L16.8844 19.0276H4.01901L4.92939 16.9836L7.60046 15.9167C8.57818 15.5355 9.48096 15.3449 10.4 15.3448ZM30.1292 18.4138C29.45 18.4138 28.8994 18.9634 28.8994 19.6414C28.8994 20.3193 29.45 20.8689 30.1292 20.8689C30.8084 20.8689 31.3591 20.3193 31.3591 19.6414C31.3591 18.9634 30.8084 18.4138 30.1292 18.4138ZM2.15022 20.2552H3.07261H8.42196H9.22184H17.8308H18.7531C18.9253 20.2552 19.0606 20.3902 19.0606 20.5621C19.0606 20.7339 18.9253 20.8689 18.7531 20.8689H9.44883H8.21298H2.15022C1.97804 20.8689 1.84276 20.7339 1.84276 20.5621C1.84276 20.3902 1.97804 20.2552 2.15022 20.2552Z" fill="white"/>
</g>
<defs>
<clipPath id="clip0_1_312">
<rect width="40" height="38" fill="white"/>
</clipPath>
</defs>
</svg>
