<svg width="30" height="40" viewBox="0 0 30 40" fill="none" xmlns="http://www.w3.org/2000/svg">
<g clip-path="url(#clip0_1_304)">
<path fill-rule="evenodd" clip-rule="evenodd" d="M6.39073 24.5667L8.67078 25.9741L9.46777 26.67L11.4522 27.4449L13.8636 26.67H15.5611L16.6669 27.4449L19.0163 26.67L20.2512 25.5086L22.7648 24.5667L27.0765 35.3142H20.962L17.1397 39.2947L14.0447 31.9307L10.8843 39.2947L7.35471 35.3142H1.20023L6.39073 24.5667Z" fill="#BAF1FF"/>
<path d="M11.9608 0.00316681C10.8043 0.0369108 9.68682 0.625375 9.05016 1.65362L8.82524 2.01822C8.50403 2.5363 7.93804 2.8554 7.31909 2.86786H7.31742L6.8809 2.87763C5.00775 2.91574 3.48186 4.40536 3.44374 6.23551L3.43375 6.66196C3.42099 7.26665 3.09337 7.82073 2.56404 8.13337L2.19084 8.35473C0.588037 9.30258 0.0283964 11.339 0.93127 12.9431H0.932936L1.14286 13.3175C1.44156 13.8473 1.44156 14.487 1.14286 15.0168L0.932936 15.3895C0.0302062 16.9934 0.588659 19.0301 2.19251 19.9779L2.56571 20.1976C3.09603 20.5114 3.42265 21.0644 3.43541 21.6691V21.6707L3.44541 22.0971C3.47697 23.5774 4.48722 24.8213 5.86125 25.2678L1.42943 34.6497C1.30722 34.9079 1.32819 35.2091 1.48506 35.4487C1.64193 35.6883 1.91304 35.8332 2.20417 35.833H7.7656L10.9212 39.6874C11.1079 39.9152 11.403 40.0311 11.6992 39.9928C11.9953 39.9545 12.2494 39.7676 12.369 39.5002L15.0264 33.5673L17.6839 39.5002C17.8035 39.7676 18.0576 39.9545 18.3537 39.9928C18.6499 40.0311 18.945 39.9152 19.1317 39.6874L22.2873 35.833H27.8487C28.1399 35.8332 28.411 35.6883 28.5678 35.4487C28.7247 35.2091 28.7457 34.9079 28.6235 34.6497L24.185 25.2532C25.5359 24.794 26.5246 23.5612 26.5558 22.0971V22.0955L26.5658 21.6707V21.6691C26.5786 21.0644 26.9062 20.5103 27.4355 20.1976L27.8104 19.9763C29.4133 19.0284 29.9712 16.9936 29.0683 15.3895L29.0666 15.3879L28.8534 15.0119C28.5565 14.4828 28.5569 13.8446 28.8551 13.3159L29.0666 12.9431V12.9415C29.969 11.3383 29.411 9.30305 27.8087 8.35473L27.8071 8.35311L27.4339 8.13337C26.9036 7.81973 26.5769 7.26664 26.5642 6.66196V6.66033L26.5542 6.23551V6.23388C26.5152 4.40393 24.9904 2.91324 23.117 2.876L22.6805 2.86624C22.0615 2.85377 21.4944 2.5337 21.1743 2.01659L20.9478 1.65199C19.9776 0.0851406 17.8928 -0.460431 16.251 0.421478V0.423105L15.8678 0.628192C15.3255 0.919993 14.6707 0.919993 14.1284 0.628192L13.7469 0.423105C13.3365 0.202628 12.8988 0.0711556 12.4573 0.0226988C12.2918 0.00452753 12.1261 -0.00165379 11.9608 0.00316681ZM11.9175 1.66502C12.2549 1.64096 12.6045 1.71069 12.9255 1.88312L13.3054 2.08821C14.3583 2.65478 15.6396 2.65478 16.6925 2.08821L17.0741 1.8815V1.88312C17.9301 1.42331 18.9827 1.69809 19.4883 2.51466L19.7148 2.87926C20.3364 3.88281 21.4435 4.50824 22.6438 4.53297L23.082 4.54273C24.059 4.56215 24.8299 5.31365 24.8498 6.26806V6.26969L24.8581 6.69614C24.8829 7.86986 25.5235 8.95131 26.5508 9.55921L26.924 9.78057C27.7594 10.2742 28.0416 11.3015 27.5722 12.1374L27.3606 12.5118C26.7806 13.5404 26.7806 14.7906 27.3606 15.8192L27.3622 15.8208V15.8225L27.5738 16.192C28.0443 17.0279 27.7609 18.0566 26.9257 18.5504L26.5525 18.7718C25.5242 19.3792 24.8845 20.4612 24.8598 21.6349L24.8514 22.0613V22.063C24.8315 23.0174 24.0606 23.7689 23.0837 23.7883L22.6455 23.7981C21.4447 23.8228 20.3385 24.447 19.7165 25.4501V25.4518L19.4899 25.8164C18.9843 26.6329 17.9317 26.9077 17.0757 26.4479V26.4495L16.6942 26.2428C15.6413 25.6762 14.3599 25.6762 13.307 26.2428L12.9255 26.4495V26.4479C12.0698 26.9076 11.0169 26.6322 10.5113 25.8164L10.2847 25.4518C9.66317 24.4482 8.55611 23.8228 7.35574 23.7981H7.35407L6.91756 23.7883C5.94061 23.7689 5.1697 23.0174 5.14983 22.063V22.0613L5.1415 21.6349C5.11672 20.4612 4.47608 19.3797 3.44874 18.7718L3.07554 18.5504C2.23971 18.0564 1.95676 17.0282 2.42743 16.192L2.63735 15.8208V15.8192C3.21649 14.7909 3.21703 13.5399 2.63735 12.5118L2.42576 12.1391H2.42743C1.9569 11.3031 2.23872 10.2744 3.07387 9.78057L3.44708 9.55921C4.47432 8.95198 5.11451 7.87045 5.13983 6.69777V6.69614L5.14983 6.26969C5.1697 5.31528 5.93894 4.56215 6.91589 4.54273H6.91756L7.35407 4.5346C8.5555 4.5104 9.66248 3.88453 10.2847 2.88088L10.5113 2.51629C10.7641 2.108 11.1525 1.83375 11.586 1.72036C11.6943 1.69201 11.805 1.67303 11.9175 1.66502ZM21.2127 8.40356L14.1834 19.138L8.53367 14.1704L7.39073 15.4107L14.5366 21.6918L22.6488 9.30204L21.2127 8.40356ZM22.4223 25.5022L26.5142 34.1663H21.8774C21.6182 34.1662 21.373 34.2811 21.211 34.4788L18.6802 37.5681L15.9578 31.4855L17.394 28.279C18.765 28.4882 20.1944 27.8984 20.9494 26.679L21.176 26.3144C21.451 25.8709 21.9088 25.5865 22.4223 25.5022ZM7.62731 25.5087C8.12129 25.6035 8.55981 25.8855 8.82524 26.3144L9.05183 26.679C10.0221 28.2449 12.1066 28.7916 13.7486 27.9095V27.9079L14.1318 27.7028C14.6523 27.4227 15.274 27.4192 15.8028 27.6768L11.3727 37.5681L8.8419 34.4788C8.67988 34.2811 8.43467 34.1662 8.17546 34.1663H3.53871L7.62731 25.5087Z" fill="white"/>
</g>
<defs>
<clipPath id="clip0_1_304">
<rect width="30" height="40" fill="white"/>
</clipPath>
</defs>
</svg>
