<svg width="31" height="31" viewBox="0 0 31 31" fill="none" xmlns="http://www.w3.org/2000/svg">
<g clip-path="url(#clip0_1_363)">
<path d="M15.5 0C6.95245 0 0 6.95245 0 15.5C0 24.0476 6.95245 31 15.5 31C24.0476 31 31 24.0476 31 15.5C31 6.95245 24.0476 0 15.5 0ZM15.5 1.06897C23.4567 1.06897 29.931 7.54331 29.931 15.5C29.931 23.4567 23.4567 29.931 15.5 29.931C7.54331 29.931 1.06897 23.4567 1.06897 15.5C1.06897 7.54331 7.54331 1.06897 15.5 1.06897ZM15.2662 3.21107C12.1156 3.27371 9.06533 4.54937 6.8063 6.8063C4.48464 9.13005 3.2069 12.2159 3.2069 15.5C3.2069 18.7841 4.48464 21.8699 6.8063 24.1937C6.9107 24.296 7.04849 24.3503 7.1842 24.3503C7.322 24.3503 7.45979 24.296 7.56418 24.1937C7.77297 23.9828 7.77297 23.6467 7.56418 23.4358C5.44296 21.3167 4.27586 18.4981 4.27586 15.5C4.27586 12.5019 5.44296 9.68332 7.56418 7.56418C10.1009 5.02539 13.7337 3.84995 17.2851 4.41783C17.5774 4.46794 17.8488 4.26542 17.8968 3.97522C17.9428 3.68292 17.7444 3.40733 17.4542 3.3614C16.7235 3.24448 15.9927 3.19437 15.2662 3.21107ZM19.5942 3.94807C19.3854 3.95643 19.1934 4.08796 19.1161 4.29465C19.0117 4.57025 19.1516 4.87924 19.4272 4.98363C19.8093 5.12561 20.1872 5.29054 20.5504 5.47218C20.6277 5.51185 20.7091 5.53064 20.7905 5.53064C20.9868 5.53064 21.1747 5.42417 21.2687 5.23626C21.4023 4.9732 21.2958 4.65167 21.0327 4.51805C20.634 4.31762 20.2206 4.13807 19.803 3.98148C19.7341 3.95643 19.6631 3.94599 19.5942 3.94807ZM22.68 5.70602C22.5422 5.72272 22.4149 5.78953 22.323 5.90645C22.1414 6.1382 22.181 6.47434 22.4149 6.65598C22.7698 6.93575 23.1143 7.24057 23.4358 7.56418C25.557 9.68332 26.7241 12.5019 26.7241 15.5C26.7241 18.4981 25.557 21.3167 23.4358 23.4358C23.227 23.6467 23.227 23.9828 23.4358 24.1937C23.5402 24.296 23.678 24.3503 23.8158 24.3503C23.9515 24.3503 24.0893 24.296 24.1937 24.1937C26.5154 21.8699 27.7931 18.7841 27.7931 15.5C27.7931 12.2159 26.5154 9.13005 24.1937 6.8063C23.8388 6.45346 23.463 6.11941 23.0746 5.81459C22.9577 5.72481 22.8157 5.68932 22.68 5.70602ZM10.3556 24.2626C10.1489 24.2375 9.93804 24.3336 9.82738 24.5257L9.2929 25.4527C9.14467 25.7074 9.23236 26.0331 9.48707 26.1813C9.57058 26.2293 9.66245 26.2544 9.75431 26.2544C9.93804 26.2544 10.1176 26.1583 10.2157 25.9871L10.7502 25.0601C10.8984 24.8054 10.8128 24.4776 10.556 24.3294C10.4913 24.2939 10.4224 24.2709 10.3556 24.2626ZM20.6444 24.2626C20.5755 24.2709 20.5087 24.2939 20.444 24.3294C20.1872 24.4776 20.1016 24.8054 20.2498 25.0622L20.7843 25.9871C20.8824 26.1583 21.062 26.2544 21.2457 26.2544C21.3376 26.2544 21.4294 26.2314 21.5129 26.1813C21.7697 26.0352 21.8553 25.7074 21.7071 25.4527L21.1726 24.5277C21.062 24.3357 20.8511 24.2375 20.6444 24.2626ZM12.7274 25.3044C12.5228 25.3336 12.3432 25.4819 12.2848 25.6969L12.0092 26.7304C11.9319 27.0143 12.1031 27.3066 12.3871 27.3839C12.433 27.3964 12.481 27.4027 12.5269 27.4027C12.7629 27.4027 12.9779 27.244 13.0426 27.006L13.3182 25.9725C13.3955 25.6886 13.2264 25.3942 12.9424 25.319C12.8693 25.2982 12.7963 25.294 12.7274 25.3044ZM18.2726 25.3044C18.2037 25.294 18.1307 25.2982 18.0576 25.319C17.7736 25.3942 17.6045 25.6886 17.6797 25.9725L17.9574 27.006C18.0221 27.244 18.2371 27.4027 18.4731 27.4027C18.519 27.4027 18.5649 27.3964 18.6129 27.3839C18.8969 27.3066 19.066 27.0143 18.9908 26.7304L18.7152 25.6969C18.6568 25.4819 18.4772 25.3336 18.2726 25.3044ZM15.5 25.6552C15.2056 25.6552 14.9655 25.8953 14.9655 26.1897V27.2586C14.9655 27.553 15.2056 27.7931 15.5 27.7931C15.7944 27.7931 16.0345 27.553 16.0345 27.2586V26.1897C16.0345 25.8953 15.7944 25.6552 15.5 25.6552Z" fill="black"/>
</g>
<defs>
<clipPath id="clip0_1_363">
<rect width="31" height="31" fill="white"/>
</clipPath>
</defs>
</svg>
